<?xml version="1.0" encoding="UTF-8" standalone="no"?>
<svg width="42px" height="42px" viewBox="0 0 42 42" version="1.1" xmlns="http://www.w3.org/2000/svg" xmlns:xlink="http://www.w3.org/1999/xlink">
    <!-- Generator: Sketch 39.1 (31720) - http://www.bohemiancoding.com/sketch -->
    <title>community</title>
    <desc>Created with Sketch.</desc>
    <defs>
        <polygon id="path-1" points="0.0171141732 13.1233596 18.2159016 13.1233596 18.2159016 0.0540955818 0.0171141732 0.0540955818"></polygon>
    </defs>
    <g id="Welcome" stroke="none" stroke-width="1" fill="none" fill-rule="evenodd" opacity="0.900000036">
        <g id="Desktop-HD" transform="translate(-765.000000, -2844.000000)">
            <g id="schools" transform="translate(136.000000, 2435.000000)">
                <g id="text" transform="translate(628.000000, 50.000000)">
                    <g id="features" transform="translate(1.000000, 205.000000)">
                        <g id="f4" transform="translate(0.000000, 154.000000)">
                            <g id="community">
                                <circle id="Oval" fill="#2C357A" cx="21" cy="21" r="21"></circle>
                                <path d="M22.3051864,41.9601009 C32.6870522,41.3234855 41.0295879,33.1438598 41.9211175,22.8328997 L34.0392715,15.2034454 L31.2102348,18.7037578 L22.6966717,10.5982518 L18.8635723,15.6956701 L22.4375469,19.3225732 L20.8352062,20.5889945 L11.5235454,14.4610696 L9.14354056,20.5889941 L12.6792917,22.862802 L9.14354056,30.2625899 L22.3051864,41.9601009 Z" id="shadow" fill-opacity="0.305819746" fill="#000000"></path>
                                <g id="Page-1" transform="translate(7.000000, 10.000000)">
                                    <g id="Group-15" transform="translate(4.685039, 10.944608)">
                                        <mask id="mask-2" fill="white">
                                            <use xlink:href="#path-1"></use>
                                        </mask>
                                        <g id="Clip-14"></g>
                                        <path d="M9.11650787,1.4211122 C7.01027953,1.4211122 5.03870472,1.98574475 3.56501181,3.01095254 C2.16572835,3.9844871 1.39506693,5.25510171 1.39506693,6.58876312 C1.39506693,7.92242454 2.16572835,9.19298447 3.56501181,10.166519 C5.03870472,11.1917268 7.01027953,11.7563594 9.11650787,11.7563594 C11.2227362,11.7563594 13.194311,11.1917268 14.6680039,10.166519 C16.0673425,9.19298447 16.8379488,7.92242454 16.8379488,6.58876312 C16.8379488,5.25510171 16.0673425,3.9844871 14.6680039,3.01095254 C13.194311,1.98574475 11.2227362,1.4211122 9.11650787,1.4211122 M9.11650787,13.123376 C6.72972835,13.123376 4.47721654,12.4707076 2.77384646,11.2857229 C0.996122047,10.0489556 0.0171141732,8.38086724 0.0171141732,6.58876312 C0.0171141732,4.79660433 0.996122047,3.12851597 2.77384646,1.89174869 C4.47721654,0.706709318 6.72972835,0.0540955818 9.11650787,0.0540955818 C11.5032874,0.0540955818 13.7557992,0.706709318 15.4591693,1.89174869 C17.2368937,3.12851597 18.2159016,4.79660433 18.2159016,6.58876312 C18.2159016,8.38086724 17.2368937,10.0489556 15.4591693,11.2857229 C13.7557992,12.4707076 11.5032874,13.123376 9.11650787,13.123376" id="Fill-13" fill="#FFFFFF" mask="url(#mask-2)"></path>
                                    </g>
                                    <path d="M13.8015583,5.46806677e-06 C15.5882669,5.46806677e-06 17.0366606,1.43690398 17.0366606,3.20943241 C17.0366606,4.98196085 15.5882669,6.41885936 13.8015583,6.41885936 C12.0148496,6.41885936 10.5664559,4.98196085 10.5664559,3.20943241 C10.5664559,1.43690398 12.0148496,5.46806677e-06 13.8015583,5.46806677e-06" id="Fill-1" fill="#71C5EF"></path>
                                    <path d="M24.7455346,4.21911089 C26.5322433,4.21911089 27.980637,5.65600941 27.980637,7.42853784 C27.980637,9.20106627 26.5322433,10.6379648 24.7455346,10.6379648 C22.958826,10.6379648 21.5104323,9.20106627 21.5104323,7.42853784 C21.5104323,5.65600941 22.958826,4.21911089 24.7455346,4.21911089" id="Fill-3" fill="#E05454"></path>
                                    <path d="M3.89887323,10.5707076 C5.64898346,10.2074092 6.76661339,8.50541885 6.40514882,6.77034668 C6.03657402,5.03647747 4.32449528,3.92301509 2.57317244,4.28631343 C0.825432283,4.64840879 -0.296937795,6.34925087 0.0692669291,8.08432305 C0.434314173,9.82054353 2.14876299,10.9328576 3.89887323,10.5707076" id="Fill-5" fill="#FFC61B"></path>
                                    <path d="M15.862226,16.2272364 L11.9447614,16.2272364 C10.8201866,16.2272364 9.90847795,15.3228182 9.90847795,14.207114 L9.90847795,9.6849136 C9.90847795,8.569264 10.8201866,7.6648458 11.9447614,7.6648458 L15.862226,7.6648458 C16.9868008,7.6648458 17.8985094,8.569264 17.8985094,9.6849136 L17.8985094,14.207114 C17.8985094,15.3228182 16.9868008,16.2272364 15.862226,16.2272364" id="Fill-7" fill="#71C5EF"></path>
                                    <path d="M7.75075276,19.7621774 L3.92985512,20.6197343 C2.83294961,20.8659613 1.74260315,20.1833825 1.49446142,19.0952373 L0.488611024,14.6844762 C0.240414173,13.5963309 0.928453543,12.5145833 2.02535906,12.268411 L5.84625669,11.4108541 C6.94310709,11.1646271 8.03345354,11.8472058 8.28165039,12.9354057 L9.28750079,17.3461122 C9.53564252,18.4342574 8.84760315,19.516005 7.75075276,19.7621774" id="Fill-9" fill="#FFC61B"></path>
                                    <path d="M20.0504417,19.7621774 L23.8713394,20.6197343 C24.9682449,20.8659613 26.0585913,20.1833825 26.3067331,19.0952373 L27.3125835,14.6844762 C27.5607803,13.5963309 26.8727409,12.5145833 25.7758354,12.268411 L21.9549378,11.4108541 C20.8580874,11.1646271 19.7677409,11.8472058 19.5195441,12.9354057 L18.5136937,17.3461122 C18.265552,18.4342574 18.9535913,19.516005 20.0504417,19.7621774" id="Fill-11" fill="#E05454"></path>
                                </g>
                            </g>
                        </g>
                    </g>
                </g>
            </g>
        </g>
    </g>
</svg>