<?xml version="1.0" encoding="UTF-8" standalone="no"?>
<svg width="42px" height="42px" viewBox="0 0 42 42" version="1.1" xmlns="http://www.w3.org/2000/svg" xmlns:xlink="http://www.w3.org/1999/xlink">
    <!-- Generator: Sketch 39.1 (31720) - http://www.bohemiancoding.com/sketch -->
    <title>community</title>
    <desc>Created with Sketch.</desc>
    <defs>
        <polygon id="path-1" points="0.0183366142 14.1732283 19.5170374 14.1732283 19.5170374 0.0584232283 0.0183366142 0.0584232283"></polygon>
    </defs>
    <g id="Welcome" stroke="none" stroke-width="1" fill="none" fill-rule="evenodd" opacity="0.900000036">
        <g id="Desktop-HD" transform="translate(-226.000000, -2033.000000)">
            <g id="Teachers" transform="translate(0.000000, 1632.000000)">
                <g id="text" transform="translate(225.000000, 98.000000)">
                    <g id="features" transform="translate(1.000000, 199.000000)">
                        <g id="f3" transform="translate(0.000000, 104.000000)">
                            <g id="community">
                                <circle id="Oval" fill="#7E2F2B" cx="21" cy="21" r="21"></circle>
                                <path d="M26.4040132,41.2981402 C35.3832073,38.9137892 42,30.729612 42,21 C42,20.5983607 41.9887247,20.1993548 41.9664733,19.8032817 L34.5342602,14.4610694 L33.0422196,17.5808308 L22.4375472,9.63810873 L18.7746129,15.1749666 L23.7251677,18.5602491 L23.1545891,19.4978845 L9.66512521,13.6267669 L9.14354056,20.5889941 L14.2854633,22.3557194 L7.88779568,30.6884112 L26.4040132,41.2981402 Z" id="shadow" fill-opacity="0.410354393" fill="#000000"></path>
                                <g id="Page-1" transform="translate(6.000000, 9.000000)">
                                    <g id="Group-15" transform="translate(5.019685, 11.820177)">
                                        <mask id="mask-2" fill="white">
                                            <use xlink:href="#path-1"></use>
                                        </mask>
                                        <g id="Clip-14"></g>
                                        <path d="M9.76768701,1.53480118 C7.51101378,1.53480118 5.3986122,2.14460433 3.81965551,3.25182874 C2.32042323,4.30324606 1.49471457,5.67550984 1.49471457,7.11586417 C1.49471457,8.5562185 2.32042323,9.92842323 3.81965551,10.9798406 C5.3986122,12.087065 7.51101378,12.6968681 9.76768701,12.6968681 C12.0243602,12.6968681 14.1367618,12.087065 15.7157185,10.9798406 C17.2150098,9.92842323 18.0406594,8.5562185 18.0406594,7.11586417 C18.0406594,5.67550984 17.2150098,4.30324606 15.7157185,3.25182874 C14.1367618,2.14460433 12.0243602,1.53480118 9.76768701,1.53480118 M9.76768701,14.1732461 C7.21042323,14.1732461 4.79701772,13.4683642 2.97197835,12.1885807 C1.06727362,10.852872 0.0183366142,9.05133661 0.0183366142,7.11586417 C0.0183366142,5.18033268 1.06727362,3.37879724 2.97197835,2.04308858 C4.79701772,0.763246063 7.21042323,0.0584232283 9.76768701,0.0584232283 C12.3249508,0.0584232283 14.7383563,0.763246063 16.5633957,2.04308858 C18.4681004,3.37879724 19.5170374,5.18033268 19.5170374,7.11586417 C19.5170374,9.05133661 18.4681004,10.852872 16.5633957,12.1885807 C14.7383563,13.4683642 12.3249508,14.1732461 9.76768701,14.1732461" id="Fill-13" fill="#FFFFFF" mask="url(#mask-2)"></path>
                                    </g>
                                    <path d="M14.7873839,5.9055119e-06 C16.7017146,5.9055119e-06 18.253565,1.5518563 18.253565,3.46618701 C18.253565,5.38051772 16.7017146,6.93236811 14.7873839,6.93236811 C12.8730531,6.93236811 11.3212028,5.38051772 11.3212028,3.46618701 C11.3212028,1.5518563 12.8730531,5.9055119e-06 14.7873839,5.9055119e-06" id="Fill-1" fill="#7644CB"></path>
                                    <path d="M26.5130728,4.55663976 C28.4274035,4.55663976 29.9792539,6.10849016 29.9792539,8.02282087 C29.9792539,9.93715157 28.4274035,11.489002 26.5130728,11.489002 C24.5987421,11.489002 23.0468917,9.93715157 23.0468917,8.02282087 C23.0468917,6.10849016 24.5987421,4.55663976 26.5130728,4.55663976" id="Fill-3" fill="#FF6262"></path>
                                    <path d="M4.17736417,11.4163642 C6.05248228,11.024002 7.24994291,9.18585236 6.86265945,7.31197441 C6.46775787,5.43939567 4.6333878,4.2368563 2.75697047,4.6292185 C0.884391732,5.0202815 -0.318147638,6.85719094 0.0742145669,8.7310689 C0.465336614,10.606187 2.30224606,11.8074862 4.17736417,11.4163642" id="Fill-5" fill="#FFC61B"></path>
                                    <path d="M16.9952421,17.5254154 L12.7979587,17.5254154 C11.5930571,17.5254154 10.6162264,16.5486437 10.6162264,15.3436831 L10.6162264,10.4597067 C10.6162264,9.25480512 11.5930571,8.27803346 12.7979587,8.27803346 L16.9952421,8.27803346 C18.2001437,8.27803346 19.1769744,9.25480512 19.1769744,10.4597067 L19.1769744,15.3436831 C19.1769744,16.5486437 18.2001437,17.5254154 16.9952421,17.5254154" id="Fill-7" fill="#7644CB"></path>
                                    <path d="M8.30437795,21.3431516 L4.21055906,22.269313 C3.03530315,22.5352382 1.8670748,21.7980531 1.60120866,20.6228563 L0.523511811,15.8592343 C0.257586614,14.6840374 0.994771654,13.51575 2.17002756,13.2498839 L6.26384646,12.3237224 C7.43904331,12.0577972 8.60727165,12.7949823 8.87319685,13.9702382 L9.9508937,18.7338012 C10.2167598,19.908998 9.4795748,21.0772854 8.30437795,21.3431516" id="Fill-9" fill="#FFC61B"></path>
                                    <path d="M21.4826161,21.3431516 L25.576435,22.269313 C26.7516909,22.5352382 27.9199193,21.7980531 28.1857854,20.6228563 L29.2634823,15.8592343 C29.5294075,14.6840374 28.7922224,13.51575 27.6169665,13.2498839 L23.5231476,12.3237224 C22.3479508,12.0577972 21.1797224,12.7949823 20.9137972,13.9702382 L19.8361004,18.7338012 C19.5702343,19.908998 20.3074193,21.0772854 21.4826161,21.3431516" id="Fill-11" fill="#FF6262"></path>
                                </g>
                            </g>
                        </g>
                    </g>
                </g>
            </g>
        </g>
    </g>
</svg>