<?xml version="1.0" encoding="UTF-8" standalone="no"?>
<svg width="42px" height="42px" viewBox="0 0 42 42" version="1.1" xmlns="http://www.w3.org/2000/svg" xmlns:xlink="http://www.w3.org/1999/xlink">
    <!-- Generator: Sketch 39.1 (31720) - http://www.bohemiancoding.com/sketch -->
    <title>settings</title>
    <desc>Created with Sketch.</desc>
    <defs></defs>
    <g id="Welcome" stroke="none" stroke-width="1" fill="none" fill-rule="evenodd" opacity="0.900000036">
        <g id="Desktop-HD" transform="translate(-765.000000, -2690.000000)">
            <g id="schools" transform="translate(136.000000, 2435.000000)">
                <g id="text" transform="translate(628.000000, 50.000000)">
                    <g id="features" transform="translate(1.000000, 205.000000)">
                        <g id="f1">
                            <g id="settings">
                                <g id="Layer_1">
                                    <circle id="Oval" fill="#273E7A" cx="21" cy="21" r="21"></circle>
                                    <g id="Group" transform="translate(8.941406, 9.679688)">
                                        <polygon id="Shape" fill="#121149" points="7.10907422 0.0543046875 9.84317578 2.78840625 5.45934375 2.26980469"></polygon>
                                        <path d="M14.2332422,32.20875 C24.7867266,31.1229844 33.0223359,22.2221016 33.0576914,11.3900391 L24.1731328,2.50539844 L0.0479882813,3.99451172 L6.12896484,10.1516953 L0.038390625,10.9904648 L6.48973828,17.4418125 L0.0369960938,17.9870742 L14.2332422,32.20875 L14.2332422,32.20875 Z" id="Shape" fill-opacity="0.528560915" fill="#000000"></path>
                                    </g>
                                    <path d="M9.79289062,14.0000273 L32.2071094,14.0000273 C32.8513828,14.0000273 33.3737578,13.4776523 33.3737578,12.8333789 L33.3737578,12.8333789 C33.3737578,12.1891055 32.8513828,11.6667305 32.2071094,11.6667305 L9.79289062,11.6667305 C9.14861719,11.6667305 8.62624219,12.1891055 8.62624219,12.8333789 L8.62624219,12.8333789 C8.62624219,13.4776523 9.14861719,14.0000273 9.79289062,14.0000273 L9.79289062,14.0000273 Z" id="Shape" fill="#FFFFFF"></path>
                                    <path d="M32.2071094,11.6666484 L20.9529141,11.6666484 L20.9529141,13.9999453 L32.2071094,13.9999453 C32.8513828,13.9999453 33.3737578,13.4775703 33.3737578,12.8332969 C33.3737578,12.1890234 32.8513828,11.6666484 32.2071094,11.6666484 L32.2071094,11.6666484 Z" id="Shape" fill="#D8D8D8"></path>
                                    <path d="M9.79289062,21 L32.2071094,21 C32.8513828,21 33.3737578,20.477625 33.3737578,19.8333516 L33.3737578,19.8333516 C33.3737578,19.1890781 32.8513828,18.6667031 32.2071094,18.6667031 L9.79289062,18.6667031 C9.14861719,18.6667031 8.62624219,19.1890781 8.62624219,19.8333516 L8.62624219,19.8333516 C8.62624219,20.477625 9.14861719,21 9.79289062,21 L9.79289062,21 Z" id="Shape" fill="#FFFFFF"></path>
                                    <path d="M32.2071094,18.6667031 L20.9529141,18.6667031 L20.9529141,21 L32.2071094,21 C32.8513828,21 33.3737578,20.477625 33.3737578,19.8333516 C33.3737578,19.1890781 32.8513828,18.6667031 32.2071094,18.6667031 L32.2071094,18.6667031 Z" id="Shape" fill="#D8D8D8"></path>
                                    <path d="M9.79289062,27.9999727 L32.2071094,27.9999727 C32.8513828,27.9999727 33.3737578,27.4775977 33.3737578,26.8333242 L33.3737578,26.8333242 C33.3737578,26.1890508 32.8513828,25.6666758 32.2071094,25.6666758 L9.79289062,25.6666758 C9.14861719,25.6666758 8.62624219,26.1890508 8.62624219,26.8333242 L8.62624219,26.8333242 C8.62624219,27.4775977 9.14861719,27.9999727 9.79289062,27.9999727 L9.79289062,27.9999727 Z" id="Shape" fill="#FFFFFF"></path>
                                    <path d="M32.2071094,25.6666758 L20.9529141,25.6666758 L20.9529141,27.9999727 L32.2071094,27.9999727 C32.8513828,27.9999727 33.3737578,27.4775977 33.3737578,26.8333242 C33.3737578,26.1890508 32.8513828,25.6666758 32.2071094,25.6666758 L32.2071094,25.6666758 Z" id="Shape" fill="#D8D8D8"></path>
                                    <path d="M15.2078555,16.3333242 L12.7921172,16.3333242 C12.1705664,16.3333242 11.6665664,15.8294883 11.6665664,15.2077734 L11.6665664,10.4588203 C11.6665664,9.83726953 12.1704023,9.33326953 12.7921172,9.33326953 L15.2078555,9.33326953 C15.8294062,9.33326953 16.3332422,9.83710547 16.3332422,10.4588203 L16.3332422,15.2079375 C16.3333242,15.8294883 15.8294883,16.3333242 15.2078555,16.3333242 L15.2078555,16.3333242 Z" id="Shape" fill="#FF6262"></path>
                                    <path d="M29.2078008,23.3332969 L26.7920625,23.3332969 C26.1705117,23.3332969 25.6666758,22.8294609 25.6666758,22.2079102 L25.6666758,17.458793 C25.6666758,16.8372422 26.1705117,16.3332422 26.7920625,16.3332422 L29.2078008,16.3332422 C29.8293516,16.3332422 30.3331875,16.8370781 30.3331875,17.458793 L30.3331875,22.2079102 C30.3333516,22.8294609 29.8294336,23.3332969 29.2078008,23.3332969 L29.2078008,23.3332969 Z" id="Shape" fill="#71E2EF"></path>
                                    <path d="M24.541125,30.3333516 L22.1253867,30.3333516 C21.5038359,30.3333516 21,29.8295156 21,29.2079648 L21,24.4588477 C21,23.8372969 21.5038359,23.3334609 22.1253867,23.3334609 L24.541125,23.3334609 C25.1626758,23.3334609 25.6665117,23.8372969 25.6665117,24.4588477 L25.6665117,29.2079648 C25.6666758,29.8294336 25.1628398,30.3333516 24.541125,30.3333516 L24.541125,30.3333516 Z" id="Shape" fill="#FFC61B"></path>
                                </g>
                            </g>
                        </g>
                    </g>
                </g>
            </g>
        </g>
    </g>
</svg>