<?xml version="1.0" encoding="UTF-8" standalone="no"?>
<svg width="42px" height="42px" viewBox="0 0 42 42" version="1.1" xmlns="http://www.w3.org/2000/svg" xmlns:xlink="http://www.w3.org/1999/xlink">
    <!-- Generator: Sketch 39.1 (31720) - http://www.bohemiancoding.com/sketch -->
    <title>light-bulb (1)</title>
    <desc>Created with Sketch.</desc>
    <defs></defs>
    <g id="Welcome" stroke="none" stroke-width="1" fill="none" fill-rule="evenodd">
        <g id="Desktop-HD" transform="translate(-226.000000, -1981.000000)">
            <g id="Teachers" transform="translate(0.000000, 1632.000000)">
                <g id="text" transform="translate(225.000000, 98.000000)">
                    <g id="features" transform="translate(1.000000, 199.000000)">
                        <g id="f2" transform="translate(0.000000, 52.000000)">
                            <g id="light-bulb-(1)">
                                <circle id="Oval" fill="#FF8E6E" cx="21" cy="21" r="21"></circle>
                                <circle id="Oval-Copy" fill="#FE9800" cx="21" cy="21" r="21"></circle>
                                <path d="M41.9030297,18.9688067 C41.9671812,19.6372152 42,20.314775 42,21 C42,28.7778778 37.7715741,35.5681538 31.4880952,39.1974553 L20.8591934,33.4964385 L20.8591934,8.39529527 L41.9030297,18.9688067 Z" id="Combined-Shape" fill-opacity="0.156787817" fill="#000000"></path>
                                <g id="Group" transform="translate(13.125000, 8.531250)">
                                    <path d="M7.86745313,0.12075 C4.75321875,0.12075 0.254625,2.54296875 0.254625,7.38740625 C0.254625,12.2318438 3.71503125,11.886 4.40704688,20.1908438 C5.0990625,20.5370156 5.79107813,20.6466094 7.86745313,20.6466094 C9.9435,20.6466094 10.6358438,20.5370156 11.3278594,20.1908438 C12.019875,11.886 15.4802813,12.2318438 15.4802813,7.38740625 C15.4799531,2.54296875 10.9816875,0.12075 7.86745313,0.12075 L7.86745313,0.12075 Z" id="Shape" fill="#F9FAF5"></path>
                                    <path d="M10.9816875,22.2766572 C10.9816875,22.6621854 10.6719375,22.9745791 10.2896719,22.9745791 L5.44490625,22.9745791 C5.06264062,22.9745791 4.75289062,22.6621854 4.75289062,22.2766572 L4.75289062,22.2766572 C4.75289062,21.891129 5.06264062,21.5787354 5.44490625,21.5787354 L10.2893437,21.5787354 C10.6719375,21.5787354 10.9816875,21.891129 10.9816875,22.2766572 L10.9816875,22.2766572 L10.9816875,22.2766572 Z" id="Shape" fill="#D9D9D9"></path>
                                    <path d="M7.86745313,25.0208438 C9.01425,25.0208438 9.9435,24.609375 9.9435,23.625 L5.79107813,23.625 C5.79107813,24.609375 6.72065625,25.0208438 7.86745313,25.0208438 L7.86745313,25.0208438 Z" id="Shape" fill="#6A6D58"></path>
                                    <path d="M10.4908438,22.7417001 C10.4908438,23.2692876 10.2951448,23.6966697 10.0535616,23.6966697 L5.68101652,23.6966697 C5.43943334,23.6966697 5.24373438,23.2692876 5.24373438,22.7417001 L5.24373438,22.7417001 C5.24373438,22.2141126 5.43943334,21.7867305 5.68101652,21.7867305 L10.0535616,21.7867305 C10.2951448,21.7867305 10.4908438,22.2141126 10.4908438,22.7417001 L10.4908438,22.7417001 L10.4908438,22.7417001 Z" id="Shape" fill="#D9D9D9"></path>
                                    <path d="M7.89960938,20.9294531 L7.24696875,20.86875 C7.24860938,20.834625 7.39790625,17.4217969 7.5954375,14.7042656 C7.58723438,14.5628437 7.57739063,14.4250312 7.5665625,14.2905 C5.6634375,14.2849219 4.13240625,12.4050937 4.13240625,10.8481406 C4.13240625,9.29282812 5.28609375,8.7898125 5.8445625,8.7898125 C6.24028125,8.7898125 7.27289063,9.57928125 7.8605625,11.935875 C7.89042188,11.7350625 7.919625,11.5769062 7.9485,11.46075 C8.30090625,10.0507969 9.76073438,8.44364062 10.6893281,8.44364062 C11.36625,8.44364062 11.7094688,9.01982812 11.7094688,10.156125 C11.7094688,10.6355156 9.95695313,13.4731406 8.2963125,14.1418594 C8.28154688,14.3265937 8.26710938,14.51625 8.253,14.7091875 C8.35340625,16.4915625 8.234625,18.5843437 7.89960938,20.9294531 L7.89960938,20.9294531 Z M5.817,9.44901562 C5.64998438,9.47165625 4.78865625,9.64982812 4.78865625,10.8481406 C4.78865625,12.0815625 6.03225,13.5837187 7.50060938,13.6329375 C7.137375,10.6345312 6.108375,9.5851875 5.817,9.44901562 L5.817,9.44901562 Z M10.689,9.09989062 C10.2161719,9.09989062 8.91679687,10.2919687 8.58473437,11.6198906 C8.53584375,11.8167656 8.45873437,12.2836875 8.3593125,13.384875 C9.639,12.6508594 10.9423125,10.5452812 11.0528906,10.1331562 C11.0505937,9.447375 10.9282031,9.09989062 10.689,9.09989062 L10.689,9.09989062 Z" id="Shape" fill="#FF8E6E"></path>
                                    <path d="M10.5449531,22 L5.18995313,22 C4.76732813,22 4.42509375,21.5112428 4.42509375,20.9080625 C4.42509375,20.3048822 4.36108398,19.816125 4.36108398,19.816125 L11.3867188,19.816125 C11.3867188,19.816125 11.3098125,20.3048822 11.3098125,20.9080625 C11.3098125,21.5112428 10.96725,22 10.5449531,22 Z" id="Shape" fill="#D9D9D9"></path>
                                    <g opacity="0.1" transform="translate(7.546875, 0.000000)" id="Shape" fill="#000000" fill-opacity="0.319378397">
                                        <g>
                                            <path d="M3.78065625,20.1662344 C4.47267187,11.8613906 7.80839062,12.2197031 7.80839062,7.37526563 C7.80839062,2.53082813 3.352125,0.121078125 0.070875,0.121078125 L0.070875,7.88582813 L0.070875,13.9279219 L0.070875,15.75 L0.40425,15.75 C0.42328125,16.734375 0.399,17.2055625 0.070875,18.2467031 L0.070875,20.372625 L0.070875,20.6466094 C1.7115,20.6466094 2.22534375,20.5550625 2.77692187,20.4425156 C3.1224375,20.3722969 3.51454687,20.2994531 3.78065625,20.1662344 L3.78065625,20.1662344 Z"></path>
                                        </g>
                                    </g>
                                </g>
                            </g>
                        </g>
                    </g>
                </g>
            </g>
        </g>
    </g>
</svg>