<?xml version="1.0" encoding="UTF-8" standalone="no"?>
<svg width="42px" height="42px" viewBox="0 0 42 42" version="1.1" xmlns="http://www.w3.org/2000/svg" xmlns:xlink="http://www.w3.org/1999/xlink">
    <!-- Generator: Sketch 39.1 (31720) - http://www.bohemiancoding.com/sketch -->
    <title>alarm-clock (1)</title>
    <desc>Created with Sketch.</desc>
    <defs></defs>
    <g id="Welcome" stroke="none" stroke-width="1" fill="none" fill-rule="evenodd">
        <g id="Desktop-HD" transform="translate(-226.000000, -1929.000000)">
            <g id="Teachers" transform="translate(0.000000, 1632.000000)">
                <g id="text" transform="translate(225.000000, 98.000000)">
                    <g id="features" transform="translate(1.000000, 199.000000)">
                        <g id="f1">
                            <g id="alarm-clock-(1)">
                                <circle id="Mask" fill="#FC3C5E" cx="21" cy="21" r="21"></circle>
                                <path d="M41.9995855,21.1333554 C41.9346741,31.5717066 34.2540217,40.2036079 24.234205,41.7524828 L14.7647825,34.0198127 L29.3863049,9.71148026 L41.9995884,21.1333581 Z" id="Combined-Shape" fill-opacity="0.25" fill="#000000"></path>
                                <g id="Layer_1" transform="translate(10.000000, 9.000000)">
                                    <g id="Group" transform="translate(4.541016, 21.484375)" fill="#707487">
                                        <path d="M0.766064453,0.0473632812 L0.0486328125,2.91704102 C-0.0273925781,3.22109375 0.202587891,3.515625 0.515966797,3.515625 L0.515966797,3.515625 C0.672753906,3.515625 0.819726563,3.43930664 0.909960938,3.31113281 L2.42739258,1.15507812 L0.766064453,0.0473632812 L0.766064453,0.0473632812 Z" id="Shape"></path>
                                        <path d="M11.4410156,0.0473632812 L12.1584473,2.91704102 C12.2344727,3.22109375 12.0044922,3.515625 11.6911133,3.515625 L11.6911133,3.515625 C11.5343262,3.515625 11.3873535,3.43930664 11.2971191,3.31113281 L9.7796875,1.15507812 L11.4410156,0.0473632812 L11.4410156,0.0473632812 Z" id="Shape"></path>
                                    </g>
                                    <g id="Group" transform="translate(4.931641, 21.484375)" fill="#5B5D6E">
                                        <path d="M0.0205078125,1.46699219 C0.439257812,1.72597656 0.877392578,1.95620117 1.33149414,2.15717773 L2.03676758,1.15517578 L0.375439453,0.0474121094 L0.0205078125,1.46699219 L0.0205078125,1.46699219 Z" id="Shape"></path>
                                        <path d="M11.0503906,0.0473632812 L9.3890625,1.15512695 L10.0943359,2.15712891 C10.5483887,1.95615234 10.9865723,1.72592773 11.4053223,1.46694336 L11.0503906,0.0473632812 L11.0503906,0.0473632812 Z" id="Shape"></path>
                                    </g>
                                    <rect id="Rectangle-path" fill="#C89650" x="10.2109863" y="2.45600586" width="0.867089844" height="1.73413086"></rect>
                                    <ellipse id="Oval" fill="#FFEAE0" cx="10.6445313" cy="13.7285645" rx="8.23720703" ry="8.23720703"></ellipse>
                                    <ellipse id="Oval" fill="#FFE0CC" cx="10.6445312" cy="13.7285645" rx="3.03476563" ry="3.03476562"></ellipse>
                                    <g id="Group" transform="translate(3.613281, 3.808594)" fill="#C89650">
                                        <rect id="Rectangle-path" transform="translate(1.309990, 1.208358) rotate(235.005163) translate(-1.309990, -1.208358) " x="0.60198571" y="0.161804838" width="1.41600918" height="2.0931057"></rect>
                                        <rect id="Rectangle-path" transform="translate(12.772944, 1.176554) rotate(124.999530) translate(-12.772944, -1.176554) " x="12.1056968" y="0.126302793" width="1.33449428" height="2.10050152"></rect>
                                    </g>
                                    <path d="M11.5116211,2.88959961 L9.77749023,2.88959961 C9.53808594,2.88959961 9.34394531,2.69545898 9.34394531,2.45605469 L9.34394531,2.02250977 C9.34394531,1.78310547 9.53808594,1.58896484 9.77749023,1.58896484 L11.5116211,1.58896484 C11.7510254,1.58896484 11.945166,1.78310547 11.945166,2.02250977 L11.945166,2.45605469 C11.945166,2.69555664 11.7510742,2.88959961 11.5116211,2.88959961 L11.5116211,2.88959961 Z" id="Shape" fill="#FFC855"></path>
                                    <path d="M10.6445801,3.75698242 C5.13754883,3.75698242 0.673193359,8.22133789 0.673193359,13.7283691 C0.673193359,19.2354004 5.13754883,23.6997559 10.6445801,23.6997559 C16.1516113,23.6997559 20.6159668,19.2354004 20.6159668,13.7283691 C20.6159668,8.22133789 16.1515625,3.75698242 10.6445801,3.75698242 L10.6445801,3.75698242 Z M10.6445801,21.9655273 C6.0953125,21.9655273 2.40737305,18.2775879 2.40737305,13.7283203 C2.40737305,9.17900391 6.0953125,5.49111328 10.6445801,5.49111328 C15.1938477,5.49111328 18.8817871,9.17900391 18.8817871,13.7283203 C18.8817871,18.2776367 15.1938477,21.9655273 10.6445801,21.9655273 L10.6445801,21.9655273 Z" id="Shape" fill="#00BEA5"></path>
                                    <g id="Group" transform="translate(2.392578, 5.468750)" fill="#5B5D6E">
                                        <path d="M8.25200195,2.19003906 C8.01259766,2.19003906 7.81845703,1.99589844 7.81845703,1.75649414 L7.81845703,0.455859375 C7.81845703,0.216455078 8.01254883,0.0223144531 8.25200195,0.0223144531 C8.49140625,0.0223144531 8.68554688,0.216455078 8.68554688,0.455859375 L8.68554688,1.75649414 C8.68554688,1.99594727 8.49140625,2.19003906 8.25200195,2.19003906 L8.25200195,2.19003906 Z" id="Shape"></path>
                                        <path d="M8.25200195,16.4967773 C8.01259766,16.4967773 7.81845703,16.3026855 7.81845703,16.0632324 L7.81845703,14.7625977 C7.81845703,14.5231934 8.01254883,14.3290527 8.25200195,14.3290527 C8.49140625,14.3290527 8.68554688,14.5231934 8.68554688,14.7625977 L8.68554688,16.0632324 C8.68554688,16.3026855 8.49140625,16.4967773 8.25200195,16.4967773 L8.25200195,16.4967773 Z" id="Shape"></path>
                                        <path d="M1.74892578,8.69311523 L0.448291016,8.69311523 C0.208886719,8.69311523 0.0147460938,8.49902344 0.0147460938,8.25957031 C0.0147460938,8.02011719 0.208886719,7.82602539 0.448291016,7.82602539 L1.74892578,7.82602539 C1.98833008,7.82602539 2.1824707,8.02011719 2.1824707,8.25957031 C2.1824707,8.49902344 1.98833008,8.69311523 1.74892578,8.69311523 L1.74892578,8.69311523 Z" id="Shape"></path>
                                        <path d="M16.0556641,8.69311523 L14.7550293,8.69311523 C14.515625,8.69311523 14.3214844,8.49902344 14.3214844,8.25957031 C14.3214844,8.02011719 14.515625,7.82602539 14.7550293,7.82602539 L16.0556641,7.82602539 C16.2950684,7.82602539 16.489209,8.02011719 16.489209,8.25957031 C16.489209,8.49902344 16.2950684,8.69311523 16.0556641,8.69311523 L16.0556641,8.69311523 Z" id="Shape"></path>
                                    </g>
                                    <g id="Group" transform="translate(3.417969, 6.494141)" fill="#959CB3">
                                        <path d="M1.59438477,4.41621094 C1.52094727,4.41621094 1.44643555,4.39755859 1.37802734,4.35820312 L0.251660156,3.70791016 C0.0441894531,3.58808594 -0.0267089844,3.32304687 0.0928710937,3.11557617 C0.212695312,2.90834961 0.476660156,2.83657227 0.685205078,2.95678711 L1.81157227,3.60708008 C2.01904297,3.7269043 2.08994141,3.99194336 1.97036133,4.19941406 C1.88989258,4.33852539 1.74428711,4.41621094 1.59438477,4.41621094 L1.59438477,4.41621094 Z" id="Shape"></path>
                                        <path d="M13.9843262,11.5695801 C13.9108887,11.5695801 13.836377,11.5509277 13.7679687,11.5115723 L12.6416016,10.8612793 C12.4341309,10.7414551 12.3632324,10.476416 12.4828125,10.2689453 C12.6026367,10.0614746 12.8667969,9.99033203 13.0751465,10.1101563 L14.2015137,10.7604492 C14.4089844,10.8802734 14.4798828,11.1453125 14.3603027,11.3527832 C14.279834,11.4918945 14.1342285,11.5695801 13.9843262,11.5695801 L13.9843262,11.5695801 Z" id="Shape"></path>
                                        <path d="M3.32431641,14.4258789 C3.25087891,14.4258789 3.17636719,14.4072266 3.10795898,14.3678711 C2.90048828,14.2480469 2.82958984,13.9830078 2.94916992,13.7755371 L3.59946289,12.6491699 C3.71928711,12.4415039 3.98369141,12.3703613 4.19179688,12.4903809 C4.39926758,12.6102051 4.47016602,12.8752441 4.35058594,13.0827148 L3.70029297,14.209082 C3.61982422,14.3481934 3.47421875,14.4258789 3.32431641,14.4258789 L3.32431641,14.4258789 Z" id="Shape"></path>
                                        <path d="M10.4776855,2.03603516 C10.404248,2.03603516 10.3297363,2.01738281 10.2613281,1.97802734 C10.0538574,1.85820313 9.98295898,1.59316406 10.1025391,1.38569336 L10.752832,0.259326172 C10.8726563,0.0518554688 11.1368164,-0.0196777344 11.345166,0.100537109 C11.5526367,0.220361328 11.6235352,0.485400391 11.5039551,0.692871094 L10.8536621,1.81923828 C10.7731934,1.95830078 10.6275879,2.03603516 10.4776855,2.03603516 L10.4776855,2.03603516 Z" id="Shape"></path>
                                        <path d="M12.8587402,4.41621094 C12.7088379,4.41621094 12.5632324,4.33847656 12.4827637,4.19946289 C12.3631836,3.99199219 12.434082,3.72695313 12.6415527,3.60712891 L13.7679199,2.95683594 C13.9755859,2.83657227 14.2404297,2.90834961 14.3602539,3.115625 C14.479834,3.3230957 14.4089355,3.58813477 14.2014648,3.70795898 L13.0750977,4.35825195 C13.0067383,4.39760742 12.9322266,4.41621094 12.8587402,4.41621094 L12.8587402,4.41621094 Z" id="Shape"></path>
                                        <path d="M0.468896484,11.5695801 C0.318994141,11.5695801 0.173388672,11.4918457 0.0929199219,11.352832 C-0.0266601563,11.1453613 0.0442382812,10.8803223 0.251708984,10.760498 L1.37807617,10.1102051 C1.58574219,9.99038086 1.85058594,10.0615234 1.97041016,10.2689941 C2.08999023,10.4764648 2.0190918,10.7415039 1.81162109,10.8613281 L0.685253906,11.5116211 C0.616845703,11.5509766 0.542333984,11.5695801 0.468896484,11.5695801 L0.468896484,11.5695801 Z" id="Shape"></path>
                                        <path d="M11.1288574,14.4258789 C10.9789551,14.4258789 10.8333496,14.3481445 10.7528809,14.2091309 L10.1025879,13.0827637 C9.98300781,12.875293 10.0539063,12.6102539 10.261377,12.4904297 C10.4688477,12.3704102 10.7336426,12.4415527 10.8537109,12.6492188 L11.5040039,13.7755859 C11.623584,13.9830566 11.5526855,14.2480957 11.3452148,14.3679199 C11.2768066,14.4072754 11.2022949,14.4258789 11.1288574,14.4258789 L11.1288574,14.4258789 Z" id="Shape"></path>
                                        <path d="M3.97548828,2.03603516 C3.82558594,2.03603516 3.67998047,1.95830078 3.59951172,1.81928711 L2.94921875,0.692871094 C2.82963867,0.485400391 2.90053711,0.220361328 3.10800781,0.100537109 C3.31567383,-0.0197265625 3.58051758,0.0518554688 3.7003418,0.259326172 L4.35063477,1.38569336 C4.47021484,1.59316406 4.39931641,1.85820313 4.1918457,1.97802734 C4.1234375,2.01738281 4.04892578,2.03603516 3.97548828,2.03603516 L3.97548828,2.03603516 Z" id="Shape"></path>
                                    </g>
                                    <g id="Group" transform="translate(8.154297, 8.496094)" fill="#464655">
                                        <path d="M0.446191406,9.20566406 C0.372753906,9.20566406 0.298242188,9.18701172 0.229833984,9.14765625 C0.0223632813,9.02783203 -0.0485351562,8.76279297 0.0710449219,8.55532227 L1.65996094,5.80317383 C1.77954102,5.59570312 2.04375,5.52456055 2.25229492,5.64438477 C2.45976563,5.76420898 2.53066406,6.02924805 2.41108398,6.23671875 L0.822167969,8.98886719 C0.741699219,9.12792969 0.59609375,9.20566406 0.446191406,9.20566406 L0.446191406,9.20566406 Z" id="Shape"></path>
                                        <path d="M2.4902832,4.79868164 C2.25087891,4.79868164 2.05673828,4.60458984 2.05673828,4.36513672 L2.05673828,0.46328125 C2.05673828,0.223876953 2.25083008,0.0297363281 2.4902832,0.0297363281 C2.7296875,0.0297363281 2.92382813,0.223876953 2.92382813,0.46328125 L2.92382813,4.36513672 C2.92382813,4.60458984 2.7296875,4.79868164 2.4902832,4.79868164 L2.4902832,4.79868164 Z" id="Shape"></path>
                                    </g>
                                    <path d="M10.6445801,5.49111328 C6.0953125,5.49111328 2.40737305,9.17900391 2.40737305,13.7283203 C2.40737305,18.2775879 6.0953125,21.9655273 10.6445801,21.9655273 C15.1938477,21.9655273 18.8817871,18.2775879 18.8817871,13.7283203 C18.8817871,9.17905273 15.1938477,5.49111328 10.6445801,5.49111328 L10.6445801,5.49111328 Z M10.6445801,21.0984863 C6.57421875,21.0984863 3.27446289,17.7987305 3.27446289,13.7283691 C3.27446289,9.65795898 6.57421875,6.35825195 10.6445801,6.35825195 C14.7149414,6.35825195 18.0146973,9.65795898 18.0146973,13.7283691 C18.0146973,17.7987793 14.7149414,21.0984863 10.6445801,21.0984863 L10.6445801,21.0984863 Z" id="Shape" fill="#FFD6B3"></path>
                                    <g id="Group" fill="#FFC855">
                                        <ellipse id="Oval" cx="10.6445312" cy="13.7285645" rx="1.08383789" ry="1.08383789"></ellipse>
                                        <path d="M7.92163086,1.84707031 C6.55009766,-0.111035156 3.84155273,-0.587939453 1.88344727,0.782519531 C-0.0747070313,2.15380859 -0.552294922,4.86259766 0.818798828,6.82070313 C0.884863281,6.91489258 0.985400391,6.97905273 1.09863281,6.99892578 C1.12382812,7.00336914 1.14902344,7.00546875 1.17402344,7.00546875 C1.26230469,7.00546875 1.34926758,6.97836914 1.42275391,6.92714844 L7.81508789,2.45097656 C7.90927734,2.38491211 7.9734375,2.28417969 7.99331055,2.17114258 C8.01328125,2.05791016 7.98740234,1.94125977 7.92163086,1.84707031 L7.92163086,1.84707031 Z" id="Shape"></path>
                                        <path d="M19.4057129,0.782519531 C17.447168,-0.588574219 14.7388184,-0.110546875 13.3675293,1.84711914 C13.301709,1.94130859 13.2758789,2.05795898 13.2958008,2.17119141 C13.3156738,2.28422852 13.379834,2.38496094 13.4740234,2.45102539 L19.8663574,6.92719727 C19.9397949,6.97841797 20.0268066,7.00551758 20.1150879,7.00551758 C20.1400879,7.00551758 20.1652832,7.00341797 20.1904785,6.99897461 C20.3037598,6.97910156 20.404248,6.91494141 20.4703125,6.82075195 C21.8413574,4.86259766 21.3637695,2.15380859 19.4057129,0.782519531 L19.4057129,0.782519531 Z" id="Shape"></path>
                                    </g>
                                    <g id="Group" fill="#FFB44B">
                                        <path d="M2.78310547,5.80844727 C1.51455078,3.99682617 1.83129883,1.54467773 3.43613281,0.101660156 C2.89389648,0.220556641 2.36577148,0.444921875 1.88339844,0.782519531 C-0.0747070313,2.15380859 -0.552294922,4.86259766 0.818798828,6.82070313 C0.884863281,6.91489258 0.985400391,6.97905273 1.09863281,6.99892578 C1.12382812,7.00336914 1.14902344,7.00546875 1.17402344,7.00546875 C1.26230469,7.00546875 1.34926758,6.97836914 1.42275391,6.92714844 L2.88334961,5.90439453 C2.84614258,5.87685547 2.81020508,5.84711914 2.78310547,5.80844727 L2.78310547,5.80844727 Z" id="Shape"></path>
                                        <path d="M15.058252,3.3671875 C16.3091797,1.58139648 18.6710938,1.03198242 20.5630859,1.9890625 C20.2674805,1.52827148 19.8812012,1.11542969 19.4057129,0.782421875 C17.447168,-0.588671875 14.7388672,-0.110644531 13.3675293,1.84702148 C13.301709,1.94121094 13.2758789,2.05786133 13.2958008,2.17109375 C13.3156738,2.28413086 13.379834,2.38486328 13.4740234,2.45092773 L14.9934082,3.51484375 C15.005957,3.46259766 15.0268555,3.4121582 15.058252,3.3671875 L15.058252,3.3671875 Z" id="Shape"></path>
                                    </g>
                                </g>
                            </g>
                        </g>
                    </g>
                </g>
            </g>
        </g>
    </g>
</svg>